<?xml version="1.0" encoding="utf-8"?>
<!-- Generator: Adobe Illustrator 16.0.0, SVG Export Plug-In . SVG Version: 6.00 Build 0)  -->
<!DOCTYPE svg PUBLIC "-//W3C//DTD SVG 1.1//EN" "http://www.w3.org/Graphics/SVG/1.1/DTD/svg11.dtd">
<svg version="1.1" id="Layer_1" xmlns="http://www.w3.org/2000/svg" xmlns:xlink="http://www.w3.org/1999/xlink" x="0px" y="0px"
	 width="100px" height="100px" viewBox="-20 0 100 100" enable-background="new -20 0 100 100" xml:space="preserve">
<g>
	<path d="M22.979,80.037c0,1.848,0.695,3.719,2.207,4.594l-0.719,0.899c-1.02-0.6-1.691-1.667-2.075-2.926
		c-0.384,1.367-1.079,2.53-2.123,3.189l-0.744-0.911c1.535-0.959,2.255-2.914,2.255-4.846v-0.779h-1.907v-1.02h4.894v1.02h-1.787
		V80.037z M25.569,77.267h1.164v10.099h-1.164v-5.493h-1.595v-1.007h1.595V77.267z M28.928,77.051v10.83h-1.175v-10.83H28.928z"/>
	<path d="M40.543,85.555v1.007h-9.811v-1.007h4.282v-2.531h1.247v2.531H40.543z M31.152,82.46c2.11-0.336,3.826-1.835,3.826-3.466
		V78.97h-3.442v-0.995h8.18v0.995h-3.442v0.024c0,1.631,1.728,3.095,3.874,3.43l-0.504,0.983c-1.787-0.335-3.311-1.343-4.018-2.722
		c-0.695,1.391-2.207,2.422-3.958,2.758L31.152,82.46z"/>
</g>
<rect x="-20" y="-0.117" fill="none" width="100" height="100"/>
<rect x="-20" fill="none" width="100" height="100"/>
<g id="그룹_4957" transform="translate(-635 -1049)">
	<rect id="사각형_1845" x="635" y="1055.467" fill="none" width="60" height="60"/>
	<g id="그룹_4950" transform="translate(260.764 1567.979)">
		<path id="패스_714" d="M428.035-507.133H381.2c-2.083,0.003-3.772,1.691-3.775,3.775v30.092
			c0.003,2.084,1.691,3.771,3.775,3.775H399l-1.033,9.275h-3.4c-0.532,0-0.964,0.432-0.964,0.963c0,0.533,0.432,0.965,0.964,0.965
			h20.095c0.533,0,0.965-0.432,0.965-0.965c0-0.531-0.432-0.963-0.965-0.963h-3.4l-1.032-9.275h17.8
			c2.084-0.004,3.773-1.691,3.775-3.775v-30.092C431.802-505.439,430.117-507.127,428.035-507.133z M409.325-460.214h-9.414
			l1.034-9.275h7.348L409.325-460.214z M429.882-473.265c-0.002,1.02-0.828,1.846-1.849,1.848H381.2
			c-1.02-0.002-1.846-0.828-1.847-1.848v-30.092c0-1.021,0.827-1.847,1.847-1.848h46.833c1.021,0.001,1.848,0.828,1.848,1.848
			L429.882-473.265z"/>
		<path id="패스_715" d="M398.112-492.083c-0.016-0.069-0.04-0.136-0.071-0.2c0-0.006,0-0.015-0.008-0.022l-3.364-6.726
			c-0.163-0.327-0.497-0.533-0.861-0.533s-0.698,0.207-0.862,0.533l-3.364,6.726c0,0.008,0,0.016-0.009,0.022
			c-0.03,0.064-0.054,0.132-0.071,0.2v0.009c-0.014,0.065-0.02,0.133-0.02,0.199v13.827c0,0.531,0.432,0.963,0.964,0.963h6.726
			c0.532,0,0.964-0.432,0.964-0.963v-13.827c0-0.066-0.006-0.134-0.02-0.199L398.112-492.083z M393.812-496.447l1.8,3.606h-3.61
			L393.812-496.447z M396.212-479.015h-4.8v-11.899h4.8V-479.015z"/>
		<path id="패스_716" d="M420.863-500.148h-19.806c-0.532-0.001-0.963,0.43-0.964,0.962v0.001v8.969
			c0,0.532,0.432,0.964,0.964,0.964h19.805c0.532,0,0.964-0.432,0.964-0.964v-8.969
			C421.826-499.718,421.394-500.148,420.863-500.148z M419.899-491.18h-17.878v-7.041h1.062v4.268h1.924v-4.268h1.435v2.4h1.928
			v-2.4h1.81v4.268h1.929v-4.268h1.435v2.4h1.928v-2.4h1.438v4.268h1.928v-4.268h1.062L419.899-491.18z"/>
	</g>
</g>
</svg>
