<?xml version="1.0" encoding="utf-8"?>
<!-- Generator: Adobe Illustrator 16.0.0, SVG Export Plug-In . SVG Version: 6.00 Build 0)  -->
<!DOCTYPE svg PUBLIC "-//W3C//DTD SVG 1.1//EN" "http://www.w3.org/Graphics/SVG/1.1/DTD/svg11.dtd">
<svg version="1.1" id="Layer_1" xmlns="http://www.w3.org/2000/svg" xmlns:xlink="http://www.w3.org/1999/xlink" x="0px" y="0px"
	 width="100px" height="100px" viewBox="0 0 100 100" enable-background="new 0 0 100 100" xml:space="preserve">
<g enable-background="new    ">
	<path d="M46.097,79.161h-6.393v-0.984h2.579v-1.115h1.235v1.115h2.579V79.161z M42.895,83.574c-1.559,0-2.626-0.792-2.626-1.967
		c0-1.188,1.067-1.979,2.626-1.979s2.626,0.792,2.626,1.979C45.521,82.782,44.454,83.574,42.895,83.574z M41.023,84.426h7.124v3.526
		h-1.235v-2.531h-5.889V84.426z M42.895,82.627c0.863,0,1.451-0.384,1.451-1.02c0-0.647-0.588-1.031-1.451-1.031
		c-0.864,0-1.439,0.384-1.439,1.031C41.455,82.243,42.031,82.627,42.895,82.627z M49.683,81.044h-1.535v2.854h-1.235v-6.776h1.235
		v2.902h1.535V81.044z"/>
	<path d="M53.695,82.986c-1.032,0.048-2.016,0.061-2.867,0.061l-0.156-1.008c1.991-0.012,4.654-0.036,6.945-0.324l0.096,0.888
		c-0.912,0.156-1.859,0.264-2.783,0.313v2.086h-1.234V82.986z M51.5,79.437c0-1.151,1.092-1.907,2.687-1.907
		c1.583,0,2.675,0.756,2.675,1.907s-1.092,1.907-2.675,1.907C52.592,81.344,51.5,80.588,51.5,79.437z M59.955,86.74v1.008h-7.82
		v-3.202h1.236v2.194H59.955z M52.676,79.437c0,0.611,0.611,0.995,1.511,0.995c0.888,0,1.499-0.384,1.499-0.995
		s-0.611-0.995-1.499-0.995C53.287,78.441,52.676,78.825,52.676,79.437z M58.469,83.479v-6.369h1.234v8.24h-1.234v-1.008h-2.123
		v-0.863H58.469z"/>
</g>
<rect y="-0.059" fill="none" width="100" height="100"/>
<rect y="0.059" fill="none" width="100" height="100"/>
<g id="Group_5399" transform="translate(-871 -1049)">
	<rect id="Rectangle_1843" x="891.12" y="1055.526" fill="none" width="60" height="60"/>
	<g id="Group_5402" transform="translate(558.47 59.5)">
		<g id="Group_5401" transform="translate(318 992.5)">
			
				<rect id="Rectangle_2474" x="20.12" y="7.026" fill="none" stroke="#000000" stroke-width="2" stroke-linecap="round" stroke-linejoin="round" width="49.059" height="34.345"/>
			
				<rect id="Rectangle_2475" x="25.12" y="12.026" fill="none" stroke="#000000" stroke-width="2" stroke-linecap="round" stroke-linejoin="round" width="39.059" height="24.345"/>
			<g id="Group_5400" transform="translate(6.863)">
				<path id="Path_2467" fill="none" stroke="#000000" stroke-width="2" stroke-linecap="round" stroke-linejoin="round" d="
					M20.12,6.526"/>
				<path id="Path_2468" fill="none" stroke="#000000" stroke-width="2" stroke-linecap="round" stroke-linejoin="round" d="
					M55.454,6.526"/>
			</g>
			<path id="Rectangle_2476" fill="none" stroke="#000000" stroke-width="2" stroke-linecap="round" stroke-linejoin="round" d="
				M32.661,24.372h10c2.21,0,4,1.791,4,4v4c0,2.21-1.79,4-4,4h-10c-2.209,0-4-1.79-4-4v-4
				C28.661,26.163,30.452,24.372,32.661,24.372z"/>
			
				<line id="Line_467" fill="none" stroke="#000000" stroke-width="2" stroke-linecap="round" stroke-linejoin="round" x1="34.499" y1="36.372" x2="34.499" y2="24.372"/>
			
				<line id="Line_468" fill="none" stroke="#000000" stroke-width="2" stroke-linecap="round" stroke-linejoin="round" x1="39.574" y1="36.372" x2="39.574" y2="24.372"/>
		</g>
		
			<line id="Line_469" fill="none" stroke="#000000" stroke-width="2" stroke-linecap="round" stroke-linejoin="round" x1="356.176" y1="1033.872" x2="345.811" y2="1051.998"/>
		
			<line id="Line_470" fill="none" stroke="#000000" stroke-width="2" stroke-linecap="round" stroke-linejoin="round" x1="369.314" y1="1033.872" x2="379.678" y2="1051.998"/>
	</g>
</g>
</svg>
