<?xml version="1.0" encoding="utf-8"?>
<!-- Generator: Adobe Illustrator 16.0.0, SVG Export Plug-In . SVG Version: 6.00 Build 0)  -->
<!DOCTYPE svg PUBLIC "-//W3C//DTD SVG 1.1//EN" "http://www.w3.org/Graphics/SVG/1.1/DTD/svg11.dtd">
<svg version="1.1" id="Layer_1" xmlns="http://www.w3.org/2000/svg" xmlns:xlink="http://www.w3.org/1999/xlink" x="0px" y="0px"
	 width="100px" height="100px" viewBox="0 0 100 100" enable-background="new 0 0 100 100" xml:space="preserve">
<g id="그룹_4956" transform="translate(-517 -1049)">
	<rect id="사각형_1848" x="537" y="1055.468" fill="none" width="60" height="60.001"/>
	<g id="그룹_4949" transform="translate(298.405 1569.575)">
		<path id="패스_709" d="M243.6-466.565v9h50.841v-9H243.6z M292.641-459.364h-47.247v-5.4h47.242L292.641-459.364z"/>
		<path id="패스_710" d="M257.542-469.712v-18h-9v18H257.542z M250.342-485.913h5.4v14.4h-5.4V-485.913z"/>
		<path id="패스_711" d="M289.486-469.712v-18h-9v18H289.486z M282.286-485.913h5.398v14.4h-5.398V-485.913z"/>
		<path id="패스_712" d="M273.288-469.712v-18h-9v18H273.288z M266.089-485.913h5.4v14.4h-5.4V-485.913z"/>
		<rect id="사각형_1832" x="243.595" y="-493.11" width="50.841" height="1.8"/>
		<path id="패스_713" d="M269.015-504.358c4.969,0.004,8.996,4.031,9,9h1.801c-0.008-5.612-4.309-10.285-9.9-10.757v-4.99h-1.799
			v4.99c-5.592,0.472-9.894,5.145-9.9,10.757h1.8C260.019-500.327,264.046-504.354,269.015-504.358z"/>
	</g>
</g>
<g enable-background="new    ">
	<path d="M38.307,82.016v0.995h-9.763v-0.995h3.838v-1.991h1.248v1.991H38.307z M37.179,85.865c0,1.26-1.487,2.027-3.79,2.027
		c-2.338,0-3.813-0.768-3.813-2.027c0-1.247,1.475-2.015,3.813-2.015C35.692,83.851,37.179,84.618,37.179,85.865z M35.596,81.236
		c0.276-1.067,0.288-1.848,0.288-2.663h-6.213v-0.995h7.436v0.911c0,0.863,0,1.763-0.3,2.879L35.596,81.236z M35.944,85.865
		c0-0.672-0.959-1.067-2.555-1.067c-1.607,0-2.59,0.396-2.59,1.067c0,0.684,0.983,1.079,2.59,1.079
		C34.984,86.944,35.944,86.549,35.944,85.865z"/>
	<path d="M49.347,82.016v0.995h-9.763v-0.995h3.838v-1.991h1.248v1.991H49.347z M48.219,85.865c0,1.26-1.487,2.027-3.79,2.027
		c-2.338,0-3.813-0.768-3.813-2.027c0-1.247,1.475-2.015,3.813-2.015C46.732,83.851,48.219,84.618,48.219,85.865z M46.636,81.236
		c0.276-1.067,0.288-1.848,0.288-2.663h-6.213v-0.995h7.436v0.911c0,0.863,0,1.763-0.3,2.879L46.636,81.236z M46.984,85.865
		c0-0.672-0.959-1.067-2.555-1.067c-1.607,0-2.59,0.396-2.59,1.067c0,0.684,0.983,1.079,2.59,1.079
		C46.024,86.944,46.984,86.549,46.984,85.865z"/>
	<path d="M56.357,78.201c0,3.227-1.296,5.961-5.014,7.76l-0.66-0.983c2.843-1.367,4.186-3.273,4.402-5.769h-3.862v-1.008H56.357z
		 M59.547,77.063v10.83h-1.234v-10.83H59.547z"/>
	<path d="M68.356,83.143c-2.255,0.396-4.81,0.456-6.692,0.456l-0.132-1.008c0.647,0,1.392,0,2.159-0.023v-2.219h1.223v2.183
		c1.128-0.048,2.291-0.12,3.358-0.288L68.356,83.143z M66.162,81.571c0.215-1.163,0.252-2.015,0.264-2.687h-4.234v-1.007h5.445
		v0.623c0,0.732,0,1.8-0.264,3.203L66.162,81.571z M64.41,86.681h6.117v1.008h-7.363v-3.214h1.246V86.681z M71.619,80.492v1.02
		H70.18v3.682h-1.248v-8.131h1.248v3.43H71.619z"/>
</g>
<rect fill="none" width="100" height="100"/>
</svg>
