<?xml version="1.0" encoding="utf-8"?>
<!-- Generator: Adobe Illustrator 16.0.0, SVG Export Plug-In . SVG Version: 6.00 Build 0)  -->
<!DOCTYPE svg PUBLIC "-//W3C//DTD SVG 1.1//EN" "http://www.w3.org/Graphics/SVG/1.1/DTD/svg11.dtd">
<svg version="1.1" id="Layer_1" xmlns="http://www.w3.org/2000/svg" xmlns:xlink="http://www.w3.org/1999/xlink" x="0px" y="0px"
	 width="100px" height="100px" viewBox="0 0 100 100" enable-background="new 0 0 100 100" xml:space="preserve">
<g enable-background="new    ">
	<path d="M39.62,84.653c1.943,0,4.642-0.012,6.968-0.359l0.084,0.899c-2.387,0.456-4.978,0.479-6.896,0.479L39.62,84.653z
		 M46.013,80.479c0,1.535-1.259,2.603-2.951,2.603c-1.691,0-2.938-1.067-2.938-2.603s1.247-2.603,2.938-2.603
		C44.753,77.877,46.013,78.944,46.013,80.479z M41.335,80.479c0,0.936,0.732,1.548,1.727,1.548c1.008,0,1.739-0.612,1.739-1.548
		c0-0.947-0.731-1.547-1.739-1.547C42.067,78.933,41.335,79.532,41.335,80.479z M48.483,77.109v10.854h-1.248V77.109H48.483z"/>
	<path d="M60.423,85.661v1.02h-9.811v-1.02h2.626V83.79h-1.439v-3.479h6.237v-1.438h-6.261v-0.996h7.484v3.419h-6.249v1.499H59.5
		v0.995h-1.596v1.871H60.423z M54.462,85.661h2.219V83.79h-2.219V85.661z"/>
</g>
<rect y="-0.059" fill="none" width="100" height="100"/>
<rect y="0.059" fill="none" width="100" height="100"/>
<g id="그룹_4962" transform="translate(-1225 -1049)">
	<rect id="사각형_1847" x="1245" y="1055.526" fill="none" width="60" height="60"/>
	<g id="그룹_4954" transform="translate(-70.341 1570.356)">
		<path id="패스_732" d="M1370.349-505.291c-2.852-2.91-6.758-4.547-10.833-4.539c-4.069-0.008-7.97,1.624-10.819,4.527
			l-3.109,3.028l-3.1-3.016c-2.853-2.91-6.758-4.546-10.833-4.539c-4.075-0.007-7.98,1.629-10.833,4.539
			c-3.306,3.342-4.919,8.003-4.386,12.674c0.052,0.494,0.495,0.853,0.989,0.801c0.001,0,0.002,0,0.003,0
			c0.495-0.053,0.853-0.496,0.8-0.99c0-0.001,0-0.002,0-0.004c-0.473-4.131,0.954-8.254,3.878-11.211
			c2.516-2.565,5.959-4.007,9.552-4c3.6-0.005,7.048,1.443,9.565,4.016l3.737,3.639c0.35,0.341,0.907,0.341,1.256,0l3.75-3.651
			c2.517-2.564,5.96-4.006,9.552-4c3.594-0.007,7.037,1.435,9.553,4c5.275,5.376,5.275,13.985,0,19.36l-23.481,23.759
			l-19.745-19.979c-0.349-0.354-0.919-0.356-1.273-0.007l0,0c-0.353,0.35-0.356,0.918-0.008,1.271l20.386,20.625
			c0.169,0.172,0.399,0.269,0.64,0.27c0.241-0.001,0.472-0.098,0.642-0.27l24.123-24.405
			C1376.322-489.47,1376.32-499.212,1370.349-505.291z"/>
		<path id="패스_733" d="M1330.972-486.936l1.787-2.086l4.811,10.424c0.149,0.336,0.49,0.544,0.856,0.522
			c0.365-0.016,0.684-0.249,0.808-0.593l4.948-13.7l5.5,17.271c0.106,0.331,0.392,0.572,0.735,0.619
			c0.041,0.006,0.08,0.008,0.121,0.008c0.305,0,0.588-0.153,0.754-0.408l6.75-10.348c0.271-0.416,0.154-0.975-0.262-1.246
			c-0.416-0.271-0.976-0.153-1.246,0.263l-5.713,8.76l-5.725-17.989c-0.117-0.367-0.455-0.619-0.84-0.627
			c-0.385-0.008-0.733,0.231-0.864,0.594l-5.1,14.136l-4.48-9.707c-0.128-0.278-0.39-0.474-0.694-0.515
			c-0.303-0.043-0.607,0.072-0.807,0.306l-2.43,2.835h-9.034c-0.497,0-0.9,0.402-0.9,0.9l0,0c0,0.496,0.403,0.899,0.9,0.899l0,0
			h9.448C1330.557-486.621,1330.803-486.736,1330.972-486.936z"/>
	</g>
</g>
</svg>
