<?xml version="1.0" encoding="utf-8"?>
<!-- Generator: Adobe Illustrator 16.0.0, SVG Export Plug-In . SVG Version: 6.00 Build 0)  -->
<!DOCTYPE svg PUBLIC "-//W3C//DTD SVG 1.1//EN" "http://www.w3.org/Graphics/SVG/1.1/DTD/svg11.dtd">
<svg version="1.1" id="Layer_1" xmlns="http://www.w3.org/2000/svg" xmlns:xlink="http://www.w3.org/1999/xlink" x="0px" y="0px"
	 width="100px" height="100px" viewBox="0 0 100 100" enable-background="new 0 0 100 100" xml:space="preserve">
<g id="그룹_4959" transform="translate(-871 -1049)">
	<rect id="사각형_1843" x="891" y="1055.526" fill="none" width="60" height="60"/>
	<g id="그룹_4952" transform="translate(191.02 1569.299)">
		<path id="패스_722" d="M754.021-498.083v37.157c-0.001,1.293-1.049,2.342-2.341,2.344h-42.558
			c-1.293-0.002-2.341-1.049-2.342-2.344v-37.157h-1.8v37.157c0.003,2.287,1.855,4.141,4.142,4.143h42.558
			c2.286-0.002,4.139-1.855,4.142-4.143v-37.157H754.021z"/>
		<path id="패스_723" d="M709.859-463.497c0.152,0.106,0.334,0.166,0.52,0.166c0.103,0,0.204-0.019,0.3-0.052
			c0.081-0.028,8.219-2.801,19.505,0.023c0.017,0,0.033,0,0.05,0.006s0.062,0.01,0.094,0.014c0.038,0.002,0.075,0.002,0.113,0
			c0.032,0,0.063-0.006,0.094-0.01c0.037-0.006,0.076-0.016,0.113-0.024c0.018-0.005,0.034-0.007,0.051-0.013
			c0.082-0.026,8.256-2.789,19.508,0.023c0.07,0.018,0.146,0.027,0.217,0.027c0.201,0,0.396-0.066,0.556-0.191
			c0.219-0.17,0.347-0.432,0.347-0.709v-37.253c0-0.366-0.222-0.695-0.561-0.833c-1.139-0.463-2.303-0.854-3.489-1.171v-7.381
			c0-0.323-0.172-0.621-0.45-0.781c-0.279-0.161-0.623-0.161-0.9,0l-15.659,9.145c-11.282-4.375-19.931,0.029-20.3,0.222
			c-0.297,0.156-0.483,0.464-0.482,0.8v37.254C709.481-463.943,709.622-463.668,709.859-463.497z M746.888-475.043
			c0.24-0.168,0.385-0.443,0.385-0.738v-25.834c0.753,0.216,1.506,0.457,2.249,0.741v35.5c-5.13-1.184-10.437-1.385-15.642-0.588
			L746.888-475.043z M731.526-501.159l13.947-8.146v33.057l-13.947,9.74V-501.159z M711.279-500.908
			c5.859-2.3,12.373-2.288,18.222,0.035v35.5c-3.123-0.703-6.314-1.063-9.515-1.068c-2.933-0.021-5.857,0.316-8.707,1.008V-500.908z
			"/>
	</g>
</g>
<g enable-background="new    ">
	<path d="M45.977,79.161h-6.393v-0.984h2.579v-1.115h1.235v1.115h2.579V79.161z M42.774,83.574c-1.559,0-2.626-0.792-2.626-1.967
		c0-1.188,1.067-1.979,2.626-1.979s2.626,0.792,2.626,1.979C45.401,82.782,44.333,83.574,42.774,83.574z M40.903,84.426h7.124v3.526
		h-1.235v-2.531h-5.889V84.426z M42.774,82.627c0.863,0,1.451-0.384,1.451-1.02c0-0.647-0.588-1.031-1.451-1.031
		c-0.864,0-1.439,0.384-1.439,1.031C41.335,82.243,41.911,82.627,42.774,82.627z M49.563,81.044h-1.535v2.854h-1.235v-6.776h1.235
		v2.902h1.535V81.044z"/>
	<path d="M60.398,85.518v1.019h-9.786v-1.019h2.255v-3.503h1.223v3.503h1.451v-3.503h1.224v3.503H60.398z M58.145,79.137h-6.561
		v-1.008h7.795v1.14c0,1.355,0,2.807-0.383,4.905L57.76,84.03c0.385-1.979,0.385-3.442,0.385-4.762V79.137z"/>
</g>
<rect y="-0.059" fill="none" width="100" height="100"/>
<rect y="0.059" fill="none" width="100" height="100"/>
</svg>
