<?xml version="1.0" encoding="utf-8"?>
<!-- Generator: Adobe Illustrator 16.0.0, SVG Export Plug-In . SVG Version: 6.00 Build 0)  -->
<!DOCTYPE svg PUBLIC "-//W3C//DTD SVG 1.1//EN" "http://www.w3.org/Graphics/SVG/1.1/DTD/svg11.dtd">
<svg version="1.1" id="Layer_1" xmlns="http://www.w3.org/2000/svg" xmlns:xlink="http://www.w3.org/1999/xlink" x="0px" y="0px"
	 width="100px" height="100px" viewBox="0 0 100 100" enable-background="new 0 0 100 100" xml:space="preserve">
<g enable-background="new    ">
	<path d="M49.503,85.757v1.02H39.68v-1.02h4.282v-1.391c-1.859-0.133-2.999-0.876-2.999-2.075c0-1.308,1.392-2.075,3.598-2.075
		c2.219,0,3.61,0.768,3.61,2.075c0,1.199-1.115,1.931-2.974,2.075v1.391H49.503z M48.999,79.593h-8.863v-0.996h3.826v-1.331h1.235
		v1.331h3.802V79.593z M44.562,83.418c1.487,0,2.351-0.407,2.351-1.127c0-0.708-0.863-1.115-2.351-1.115
		c-1.475,0-2.339,0.407-2.339,1.115C42.223,83.011,43.086,83.418,44.562,83.418z"/>
	<path d="M55.842,82.303c-1.308,0.229-2.387,0.276-3.946,0.276h-0.708v-4.834h4.078v0.972h-2.902v0.947h2.507v0.924h-2.507v1.031
		c1.283-0.012,2.242-0.06,3.358-0.264L55.842,82.303z M60.291,86.896v0.959h-7.604v-2.734h5.996V84.33h-6.021v-0.96h7.231v2.65
		H53.91v0.876H60.291z M56.633,80.468H55.35v-0.983h1.283v-2.171h1.151v5.518h-1.151V80.468z M59.895,82.927H58.72v-5.793h1.175
		V82.927z"/>
</g>
<rect x="0" y="-0.059" fill="none" width="100" height="100"/>
<rect x="0" y="0.059" fill="none" width="100" height="100"/>
<g id="그룹_4963" transform="translate(-1343 -1049)">
	<rect id="사각형_1849" x="1363.121" y="1055.526" fill="none" width="60" height="60"/>
	<g id="그룹_4955" transform="translate(-105.957 1569.125)">
		<path id="패스_734" d="M1490.273-463.807c0.497,0,0.9-0.402,0.9-0.898l0,0v-38.693c0-0.497-0.403-0.9-0.9-0.9l0,0h-7.649
			c-0.497,0-0.9,0.403-0.9,0.9l0,0v38.693c0,0.496,0.403,0.898,0.9,0.898l0,0H1490.273z M1483.524-502.5h5.849v36.893h-5.849V-502.5
			z"/>
		<path id="패스_735" d="M1496.121-497.101h13.047c0.498,0,0.899-0.402,0.899-0.9l0,0v-5.399c0-0.497-0.401-0.9-0.899-0.9l0,0
			h-13.047c-0.497,0-0.9,0.403-0.9,0.9l0,0V-498C1495.221-497.503,1495.624-497.101,1496.121-497.101L1496.121-497.101z
			 M1497.021-502.501h11.249v3.601h-11.249V-502.501z"/>
		<path id="패스_736" d="M1495.221-487.202c0,0.496,0.403,0.899,0.9,0.899l0,0h13.047c0.498,0,0.899-0.403,0.899-0.899l0,0v-5.4
			c0-0.497-0.401-0.9-0.899-0.9l0,0h-13.047c-0.497,0-0.9,0.403-0.9,0.9l0,0V-487.202z M1497.021-491.702h11.249v3.6h-11.249
			V-491.702z"/>
		<path id="패스_737" d="M1495.221-476.405c0,0.498,0.403,0.9,0.9,0.9l0,0h13.047c0.498,0,0.899-0.402,0.899-0.9l0,0v-5.399
			c0-0.497-0.401-0.899-0.899-0.899l0,0h-13.047c-0.497,0-0.9,0.402-0.9,0.899l0,0V-476.405z M1497.021-480.905h11.249v3.601
			h-11.249V-480.905z"/>
		<path id="패스_738" d="M1495.221-465.606c0,0.497,0.403,0.899,0.9,0.899l0,0h13.047c0.498,0,0.899-0.402,0.899-0.899l0,0v-5.4
			c0-0.497-0.401-0.9-0.899-0.9l0,0h-13.047c-0.497,0-0.9,0.403-0.9,0.9l0,0V-465.606z M1497.021-470.106h11.249v3.601h-11.249
			V-470.106z"/>
		<path id="패스_739" d="M1524.021-505.199h-6.4c-0.521-3.112-3.212-5.395-6.367-5.4h-30.717
			c-3.567,0.004-6.458,2.896-6.462,6.463v39.878c0,0.498,0.403,0.9,0.9,0.9l0,0c0.497,0,0.9-0.402,0.9-0.9l0,0v-39.878
			c0.003-2.574,2.089-4.66,4.663-4.663h30.718c2.572,0.003,4.66,2.089,4.662,4.663v39.878c0,0.498,0.401,0.9,0.899,0.9l0,0
			c0.496,0,0.9-0.402,0.9-0.9l0,0v-16.646h6.3c0.498,0,0.898-0.403,0.898-0.9l0,0v-22.5
			C1524.916-504.797,1524.516-505.198,1524.021-505.199z M1523.121-482.7h-5.4v-20.699h5.4V-482.7z"/>
		<path id="패스_740" d="M1524.021-459.758h-49.043c-0.497,0-0.9,0.403-0.9,0.9l0,0c0,0.497,0.403,0.898,0.9,0.898l0,0h49.043
			c0.496,0,0.898-0.401,0.898-0.898l0,0C1524.922-459.354,1524.518-459.758,1524.021-459.758L1524.021-459.758z"/>
	</g>
</g>
</svg>
